<svg width="0" height="0" class="hidden">
  <symbol enable-background="new 0 0 512 512" id="facebook-icon" version="1.1" xmlns="http://www.w3.org/2000/svg" viewBox="0 0 512 512">
    <g>
      <path d="M308.3,508.5c-2.5,0.1-4.1,0.3-5.7,0.3c-34.2,0-68.3-0.1-102.5,0.1c-4.8,0-6.1-1.3-6.1-6.1c0.1-79.6,0.1-159.3,0.1-238.9   c0-2.1,0-4.2,0-6.9c-18.6,0-36.7,0-55.1,0c0-28.4,0-56.3,0-85c1.9,0,3.7,0,5.4,0c15,0,30-0.1,45,0.1c3.8,0,4.8-1.1,4.8-4.8   c-0.2-22.3-0.2-44.7,0-67c0.1-15.6,2.6-30.8,9.8-44.9c10.3-19.9,26.6-32.8,47.2-40.8c16.8-6.6,34.5-9,52.3-9.3   c29-0.4,58-0.2,87-0.3c2.7,0,4.9-0.1,4.9,3.7c-0.1,27.5-0.1,55-0.1,82.5c0,0.3-0.1,0.6-0.5,1.9c-1.7,0-3.6,0-5.5,0   c-18,0-36-0.1-54,0c-10.4,0-18.8,4.2-24.1,13.3c-1.6,2.7-2.6,6.2-2.6,9.4c-0.3,17,0,34-0.2,51c0,4,1.2,5.1,5.1,5.1   c25-0.2,50-0.1,75-0.1c2,0,3.9,0,7.3,0c-3.5,28.6-6.9,56.6-10.4,84.9c-26,0-51.3,0-77.1,0C308.3,340.8,308.3,424.4,308.3,508.5z"></path>
    </g>
  </symbol>
  <symbol enable-background="new 0 0 512 512" id="youtube-icon" version="1.1" xml:space="preserve" xmlns="http://www.w3.org/2000/svg" xmlns:xlink="http://www.w3.org/1999/xlink" viewBox="0 0 512 512">
    <g>
      <path d="M260.4,449c-57.1-1.8-111.4-3.2-165.7-5.3c-11.7-0.5-23.6-2.3-35-5c-21.4-5-36.2-17.9-43.8-39c-6.1-17-8.3-34.5-9.9-52.3   C2.5,305.6,2.5,263.8,4.2,222c1-23.6,1.6-47.4,7.9-70.3c3.8-13.7,8.4-27.1,19.5-37c11.7-10.5,25.4-16.8,41-17.5   c42.8-2.1,85.5-4.7,128.3-5.1c57.6-0.6,115.3,0.2,172.9,1.3c24.9,0.5,50,1.8,74.7,5c22.6,3,39.5,15.6,48.5,37.6   c6.9,16.9,9.5,34.6,11,52.6c3.9,45.1,4,90.2,1.8,135.3c-1.1,22.9-2.2,45.9-8.7,68.2c-7.4,25.6-23.1,42.5-49.3,48.3   c-10.2,2.2-20.8,3-31.2,3.4C366.2,445.7,311.9,447.4,260.4,449z M205.1,335.3c45.6-23.6,90.7-47,136.7-70.9   c-45.9-24-91-47.5-136.7-71.4C205.1,240.7,205.1,287.6,205.1,335.3z"></path>
    </g>
  </symbol>
  <symbol enable-background="new 0 0 512 512" id="pinterest-icon" version="1.1" xml:space="preserve" xmlns="http://www.w3.org/2000/svg" xmlns:xlink="http://www.w3.org/1999/xlink" viewBox="0 0 512 512">
    <g>
      <path d="M236.3,335.8c-1.9,7.7-3.6,14.5-5.3,21.3c-1.9,7.8-3.7,15.6-5.5,23.4c-2.2,9.5-3.9,19.1-6.7,28.3c-4,13.1-8,26.2-13.4,38.7   c-5,11.5-11.6,22.4-17.9,33.3c-5.2,8.9-11.1,17.5-16.9,26.1c-0.9,1.3-3.4,2.6-4.5,2.2c-1.4-0.5-3-2.7-3.2-4.3   c-3.8-30.3-5.8-60.8-1.8-91.2c1.6-12.3,4.9-24.3,7.4-36.5c1.6-8,3.2-16.1,4.9-24.2c2.1-9.9,4.3-19.9,6.5-29.8   c3.2-14.6,6.5-29.1,9.8-43.7c2.7-11.7,5.3-23.5,8.2-35.2c1.4-5.6-1.5-10.2-2.8-15.2c-4.3-17.2-7-34.3-3.8-52.2   c2.3-12.9,5.7-25.2,13-36.1c9.5-14.2,22.3-23.5,40.4-22.5c15.5,0.9,26.3,11,30.3,25.3c4.5,15.8,2.5,31.6-1.6,47.2   c-4.4,17-9.1,33.8-13.4,50.8c-2.7,10.6-6.6,21.2-7.2,32c-0.9,16.1,5.4,30.2,19.5,39.3c11.2,7.2,23.1,8.6,36.3,5.4   c17.5-4.3,29.6-15.2,39.8-29c12.1-16.3,18.9-34.8,24.2-54.3c6.5-24.2,9-48.6,8.5-73.5c-0.4-23-6.5-44.3-19.5-63.3   c-9.8-14.2-22.7-24.8-38.7-31.8c-10.2-4.5-20.3-8.4-31.5-8.9c-12.1-0.5-24.3-2.6-36.2-1.4c-35.9,3.9-65.6,19.7-88,48.5   c-8.9,11.5-16,24-20.7,37.5c-7.2,20.8-10.4,42.4-8.3,64.5c1.5,15.5,6,30.4,16.2,42.4c7,8.2,5.7,16.2,3.3,25   c-1.3,4.6-2.5,9.2-3.5,13.9c-1.7,8.4-6.4,12.7-16.1,8c-19.4-9.4-31.7-24.9-40.3-44.1c-12-26.9-14.1-55.3-11.3-83.9   c3.3-32.4,15.8-61.7,35-88c13.9-19,31.2-34.4,51.4-46.5c15.8-9.5,32.6-16.2,50.4-20.8c23.1-6,46.5-7.8,70-5.9   c17.6,1.4,34.6,5.6,51.1,12.4c28.5,11.8,51.8,29.9,70,54.6c10.8,14.7,19.1,30.8,24.5,48.4c3.2,10.4,5.9,20.8,6.2,31.7   c0.4,12.3,1.8,24.6,1.1,36.7c-0.7,12.9-3.3,25.8-5.3,38.6c-3.3,21.2-10.4,41.2-19.9,60.3c-8.2,16.4-18.5,31.3-31.8,44.2   c-13.4,13-28.8,22.7-46.4,29.1c-16.7,6.1-33.8,8.3-51.2,6.2c-20.7-2.6-38.2-11.9-51.3-28.7C239.4,339.1,238,337.7,236.3,335.8z"></path>
    </g>
  </symbol>
  <symbol enable-background="new 0 0 512 512" id="instagram-icon" version="1.1" xml:space="preserve" xmlns="http://www.w3.org/2000/svg" xmlns:xlink="http://www.w3.org/1999/xlink" viewBox="0 0 512 512">
    <g>
      <path d="M505,257c0,34.8-0.7,69.7,0.2,104.5c1.5,61.6-37.2,109.2-86.5,130.4c-19.8,8.5-40.6,13-62.1,13c-67.3,0.1-134.7,1-202-0.3   c-50.7-1-92.4-22.2-122.3-64c-15.7-22-23.2-47-23.2-74.1c0-71.7,0-143.3,0-215c0-58.5,28.5-99.4,79.1-126C110.2,14,134.1,9.1,159,9   c65.3,0,130.7-0.4,196,0.2c50.7,0.4,93,19.8,124.2,60.6c17.4,22.8,25.8,49,25.8,77.8C505,184,505,220.5,505,257z M46,257   c0,36.7,0,73.3,0,110c0,16.4,3.8,31.8,12.3,45.7c22.3,36.5,56,54.3,97.8,55c67.1,1,134.3,0.4,201.5,0.2c16.5,0,32.5-3.4,47.4-10.5   c40.6-19.4,63.3-50.3,63.1-96.7c-0.4-71-0.1-142-0.1-213c0-20.1-5.7-38.5-17.6-54.7c-23-31.1-54.8-46.4-92.8-46.8   c-67-0.8-134-0.3-201-0.2c-14.3,0-28.1,2.9-41.5,7.9c-36.8,13.7-71,48.4-69.4,99.5C46.9,188,46,222.5,46,257z"></path>
      <path d="M257.6,363c-64.5,0-116.5-51.4-116.6-115.4c-0.1-63,52.3-114.6,116.4-114.6c64.3-0.1,116.5,51.4,116.6,114.9   C374,311.3,321.9,362.9,257.6,363z M257.6,326c43.9,0,79.5-35.1,79.4-78.3c-0.1-42.8-35.7-77.8-79.4-77.8   c-43.9,0-79.7,34.9-79.7,78C178,291.1,213.7,326.1,257.6,326z"></path>
      <path d="M387.5,98c13.5,0,24.5,11.5,24.5,25.6c-0.1,14.1-11.2,25.5-24.7,25.4c-13.3-0.1-24.2-11.5-24.2-25.3   C363,109.6,374,98,387.5,98z"></path>
    </g>
  </symbol>
  <symbol enable-background="new 0 0 512 512" id="tumbler-icon" version="1.1" xml:space="preserve" xmlns="http://www.w3.org/2000/svg" xmlns:xlink="http://www.w3.org/1999/xlink" viewBox="0 0 512 512">
    <g>
      <path d="M121,212.7c0-2.6,0-4.4,0-6.2c0-20.3,0.1-40.7-0.1-61c0-4.2,0.8-6.1,5.4-8.1c16.6-7.4,31.9-17,44.5-30.7   c16.5-17.9,27.7-38.4,33.4-61.9c2.8-11.4,4.8-23,6.8-34.6c0.7-3.7,1.9-5.6,6-5.5c18.2,0.2,36.3,0.2,54.5,0c4.8-0.1,4.5,2.7,4.5,5.8   c0.2,33.2,0.4,66.3,0.7,99.5c0,7.2,0,14.3,0,22.3c2.2,0,4.1,0,6,0c31.5,0,63,0.1,94.5-0.1c4.9,0,6.7,1.3,6.7,6.4   c-0.2,22.7-0.2,45.3,0,68c0,4.8-1.5,6.3-6.3,6.2c-31.2-0.2-62.3-0.1-93.5-0.1c-2.2,0-4.3,0-7,0c-0.1,1.9-0.3,3.5-0.3,5.1   c0.1,47.8,0.1,95.7,0.4,143.5c0.1,10.1,0.5,20.4,1.9,30.4c2.4,16.4,13,26.4,28,31.8c20,7.1,39.8,4.6,59-2.8   c10.6-4.1,20.5-10.2,30.9-15.4c0.1,0.6,0.4,2,0.4,3.4c0,23.5-0.1,47,0.1,70.5c0,3.9-1.9,5.3-5,6.8c-14.4,6.9-29.1,12.6-44.3,17.5   c-22.6,7.2-45.8,6.8-68.9,5.9c-34.6-1.4-64.2-14.7-87-40.9c-11.8-13.5-19.9-29.4-20.2-47.9c-0.8-61.1-1.2-122.3-1.8-183.4   c-0.1-6.5-0.2-13,0-19.5c0.1-3.8-1.4-4.9-5-4.8c-12.7,0.1-25.3,0.1-38,0.1C125.5,212.7,123.7,212.7,121,212.7z"></path>
    </g>
  </symbol>
  <symbol enable-background="new 0 0 512 512" id="twitter-icon" version="1.1" xml:space="preserve" xmlns="http://www.w3.org/2000/svg" xmlns:xlink="http://www.w3.org/1999/xlink" viewBox="0 0 512 512">
    <g>
      <path d="M4,440.5c55.6,5,105.7-9,151.3-43.2c-47.7-4.2-79.6-28-97.4-72.6c15.6,1.9,30.2,2.4,45.7-1.8   c-51.4-16-78.8-49.6-82.5-103.8c15.4,7.2,29.9,12.4,47,12.6c-30.5-22.9-46.1-52.6-45.5-90c0.3-17.2,4.9-33.4,14-48.7   C93.1,159.1,164,195.7,251.3,201.8c-0.5-3.8-0.8-6.8-1.2-9.9c-7.2-55.4,28.8-105.8,83.8-116.3c34.5-6.6,65,2.5,90.8,26.3   c4,3.6,7.4,4.4,12.4,3.1c20.1-5.1,39.2-12.5,57.7-22.5c-7.1,23.4-21.7,41-41.5,55.8c4.5-0.8,9.1-1.4,13.6-2.3   c4.7-1,9.4-2.1,14.1-3.4c4.5-1.2,8.9-2.6,13.3-4.1c4.5-1.5,9-3.2,14.3-4.1c-2.6,3.6-5.1,7.4-7.9,10.9c-11.6,14.7-25,27.6-39.7,39.1   c-1.5,1.2-2.8,3.8-2.7,5.6c0.8,35.5-4.2,70.1-15.7,103.7c-22.6,66.2-62,119.8-121.1,158.1c-29.2,18.9-61.1,31.3-95.2,38.5   c-33.8,7.1-67.8,8.4-101.9,4.4c-34.2-4-66.7-14.1-97.3-29.9c-8.1-4.1-15.9-8.7-23.8-13.1C3.6,441.3,3.8,440.9,4,440.5z"></path>
    </g>
  </symbol>
    <symbol id="arrow-icon" xmlns="http://www.w3.org/2000/svg" viewBox="0 0 128 128">
    <title></title>
    <path d="M64,0a64,64,0,1,0,64,64A64.07,64.07,0,0,0,64,0Zm0,122a58,58,0,1,1,58-58A58.07,58.07,0,0,1,64,122Z"></path>
    <path d="M74.12,35.88a3,3,0,0,0-4.24,0l-26,26a3,3,0,0,0,0,4.24l26,26a3,3,0,0,0,4.24-4.24L50.24,64,74.12,40.12A3,3,0,0,0,74.12,35.88Z"></path>
  </symbol>
    <symbol xmlns="http://www.w3.org/2000/svg" viewBox="0 0 24 24" id="burger-menu-icon">
    <path fill-rule="evenodd" clip-rule="evenodd" d="M4 5C3.44772 5 3 5.44772 3 6C3 6.55228 3.44772 7 4 7H20C20.5523 7 21 6.55228 21 6C21 5.44772 20.5523 5 20 5H4ZM7 12C7 11.4477 7.44772 11 8 11H20C20.5523 11 21 11.4477 21 12C21 12.5523 20.5523 13 20 13H8C7.44772 13 7 12.5523 7 12ZM13 18C13 17.4477 13.4477 17 14 17H20C20.5523 17 21 17.4477 21 18C21 18.5523 20.5523 19 20 19H14C13.4477 19 13 18.5523 13 18Z" ></path>
  </symbol>
  <symbol xmlns="http://www.w3.org/2000/svg" viewBox="0 0 24 24" id="close-icon">
    <g id="Edit / Close_Circle">
      <path id="Vector" d="M9 9L11.9999 11.9999M11.9999 11.9999L14.9999 14.9999M11.9999 11.9999L9 14.9999M11.9999 11.9999L14.9999 9M12 21C7.02944 21 3 16.9706 3 12C3 7.02944 7.02944 3 12 3C16.9706 3 21 7.02944 21 12C21 16.9706 16.9706 21 12 21Z" stroke-width="2" stroke-linecap="round" stroke-linejoin="round"></path>
    </g>
  </symbol>
</svg>
<svg class="icon">
  <use xlink:href="#facebook-icon"></use>
</svg><svg class="icon">
  <use xlink:href="#youtube-icon"></use>
</svg><svg class="icon">
  <use xlink:href="#pinterest-icon"></use>
</svg><svg class="icon">
  <use xlink:href="#instagram-icon"></use>
</svg><svg class="icon">
  <use xlink:href="#tumbler-icon"></use>
</svg><svg class="icon">
  <use xlink:href="#twitter-icon"></use>
</svg><svg class="icon">
  <use xlink:href="#arrow-icon"></use>
</svg><svg class="icon">
  <use xlink:href="#burger-menu-icon"></use>
</svg><svg class="icon">
  <use xlink:href="#close-icon"></use>
</svg>
